<?xml version="1.0" encoding="UTF-8"?>
<svg width="188px" height="74px" viewBox="0 0 188 74" version="1.1" xmlns="http://www.w3.org/2000/svg" xmlns:xlink="http://www.w3.org/1999/xlink">
    <!-- Generator: Sketch 44.1 (41455) - http://www.bohemiancoding.com/sketch -->
    <title>logo_w</title>
    <desc>Created with Sketch.</desc>
    <defs></defs>
    <g id="FrontPage" stroke="none" stroke-width="1" fill="none" fill-rule="evenodd">
        <g id="Output_Clip" transform="translate(-193.000000, -464.000000)" fill="#FEFEFE">
            <g id="logo_w" transform="translate(193.000000, 464.000000)">
                <path d="M31.7268,0.0003 L-0.0002,18.3163 L-0.0002,31.0123 L9.7358,36.6333 L-0.0002,42.2523 L-0.0002,54.9473 L31.4108,73.0843 L31.7268,73.2653 L63.4508,54.9473 L63.4508,18.3163 L32.0428,0.1823 L31.7268,0.0003 Z M11.9458,24.1903 L20.6698,19.0853 L20.6518,19.0753 L32.7518,12.0643 L43.8898,18.4993 L51.4288,14.1543 L60.5328,19.3913 L32.1208,35.8063 L11.9458,24.1903 Z M32.4378,37.3863 L60.9258,20.9993 L60.9258,53.5403 L32.4378,69.9293 L32.4378,37.3863 Z M2.6668,43.7903 L12.9388,37.7523 L21.3628,42.6163 L21.3628,54.5823 L2.6668,43.7903 Z" id="Fill-1"></path>
                <polygon id="Fill-2" points="47.5605 55.2959 50.0355 49.9969 52.4555 48.6009 52.4555 36.6329 42.0915 42.6159 42.0915 42.6179 42.0915 54.5829 47.5605 51.4269"></polygon>
                <polygon id="Fill-3" points="42.8008 19.3135 32.7118 13.4875 22.6248 19.3135 27.9958 22.4155 23.6688 25.0665 30.8258 24.0475 32.7118 25.1365"></polygon>
                <g id="Group-36" transform="translate(75.000000, 16.265700)">
                    <path d="M54.8203,1.9863 C54.5393,1.7503 54.1753,1.5923 53.8003,1.5923 C53.5183,1.5923 53.1423,1.7583 53.1423,2.0873 C53.1423,2.4323 53.5573,2.5653 53.8253,2.6513 L54.2163,2.7683 C55.0393,3.0113 55.6753,3.4283 55.6753,4.3833 C55.6753,4.9713 55.5333,5.5763 55.0633,5.9753 C54.6003,6.3673 53.9813,6.5323 53.3863,6.5323 C52.6403,6.5323 51.9113,6.2813 51.3073,5.8583 L51.9663,4.6193 C52.3493,4.9573 52.8053,5.2313 53.3303,5.2313 C53.6903,5.2313 54.0753,5.0503 54.0753,4.6353 C54.0753,4.2033 53.4703,4.0543 53.1423,3.9613 C52.1793,3.6863 51.5433,3.4353 51.5433,2.2923 C51.5433,1.0913 52.3973,0.3063 53.5803,0.3063 C54.1753,0.3063 54.9063,0.4953 55.4313,0.7943 L54.8203,1.9863 Z" id="Fill-4"></path>
                    <path d="M57.9404,3.3183 C57.9404,4.3373 58.6934,5.0823 59.6104,5.0823 C60.5274,5.0823 61.2804,4.3373 61.2804,3.3183 C61.2804,2.5033 60.5274,1.7583 59.6104,1.7583 C58.6934,1.7583 57.9404,2.5033 57.9404,3.3183 M62.8784,3.3103 C62.8784,5.2223 61.5064,6.5713 59.6104,6.5713 C57.7124,6.5713 56.3394,5.2223 56.3394,3.3103 C56.3394,1.5223 57.9094,0.2663 59.6104,0.2663 C61.3114,0.2663 62.8784,1.5223 62.8784,3.3103" id="Fill-6"></path>
                    <polygon id="Fill-8" points="66.1797 6.3759 64.6427 6.3759 64.6427 1.7669 63.3727 1.7669 63.3727 0.4649 67.4497 0.4649 67.4497 1.7669 66.1797 1.7669"></polygon>
                    <path d="M69.541,3.3183 C69.541,4.3373 70.295,5.0823 71.211,5.0823 C72.129,5.0823 72.881,4.3373 72.881,3.3183 C72.881,2.5033 72.129,1.7583 71.211,1.7583 C70.295,1.7583 69.541,2.5033 69.541,3.3183 M74.482,3.3103 C74.482,5.2223 73.108,6.5713 71.211,6.5713 C69.315,6.5713 67.942,5.2223 67.942,3.3103 C67.942,1.5223 69.511,0.2663 71.211,0.2663 C72.912,0.2663 74.482,1.5223 74.482,3.3103" id="Fill-10"></path>
                    <polygon id="Fill-12" points="75.4287 0.4648 76.9667 0.4648 79.7817 4.0778 79.7947 4.0778 79.7947 0.4648 81.3317 0.4648 81.3317 6.3758 79.7947 6.3758 76.9827 2.7538 76.9667 2.7538 76.9667 6.3758 75.4287 6.3758"></polygon>
                    <path d="M88.4668,3.0742 C88.4518,3.9382 88.3878,4.6752 87.8628,5.4102 C87.2828,6.2192 86.4118,6.5712 85.4238,6.5712 C83.5668,6.5712 82.2728,5.3082 82.2728,3.4522 C82.2728,1.5302 83.5738,0.2662 85.4798,0.2662 C86.6948,0.2662 87.6348,0.8162 88.1458,1.9232 L86.6868,2.5342 C86.4748,1.9702 86.0288,1.5932 85.4078,1.5932 C84.3978,1.5932 83.8718,2.5572 83.8718,3.4592 C83.8718,4.3772 84.4208,5.3082 85.4338,5.3082 C86.0998,5.3082 86.6078,4.9652 86.6718,4.2812 L85.4158,4.2812 L85.4158,3.0742 L88.4668,3.0742 Z" id="Fill-14"></path>
                    <path d="M93.8672,5.2001 L94.0612,5.2001 C94.5172,5.2001 95.2872,5.2221 95.2872,4.5711 C95.2872,3.8591 94.5242,3.9291 94.0242,3.9291 L93.8672,3.9291 L93.8672,5.2001 Z M93.8672,2.7841 L94.0392,2.7841 C94.4472,2.7841 94.8692,2.7151 94.8692,2.2121 C94.8692,1.6721 94.3922,1.6401 93.9762,1.6401 L93.8672,1.6401 L93.8672,2.7841 Z M92.3292,6.3761 L92.3292,0.4651 L94.5242,0.4651 C95.5752,0.4651 96.2822,0.8711 96.2822,2.0021 C96.2822,2.5341 96.1092,2.9651 95.6312,3.2081 L95.6312,3.2231 C96.4772,3.3351 96.8382,3.9061 96.8382,4.7291 C96.8382,5.9681 95.7802,6.3761 94.6982,6.3761 L92.3292,6.3761 Z" id="Fill-16"></path>
                    <path d="M99.1738,3.3183 C99.1738,4.3373 99.9258,5.0823 100.8448,5.0823 C101.7618,5.0823 102.5138,4.3373 102.5138,3.3183 C102.5138,2.5033 101.7618,1.7583 100.8448,1.7583 C99.9258,1.7583 99.1738,2.5033 99.1738,3.3183 M104.1118,3.3103 C104.1118,5.2223 102.7408,6.5713 100.8448,6.5713 C98.9458,6.5713 97.5748,5.2223 97.5748,3.3103 C97.5748,1.5223 99.1428,0.2663 100.8448,0.2663 C102.5448,0.2663 104.1118,1.5223 104.1118,3.3103" id="Fill-18"></path>
                    <polygon id="Fill-20" points="104.9199 0.4648 106.8109 0.4648 107.7099 1.9928 108.6119 0.4648 110.5009 0.4648 108.6119 3.2158 110.7999 6.3758 108.9489 6.3758 107.7099 4.4478 106.3559 6.3758 104.4959 6.3758 106.8109 3.2158"></polygon>
                    <polygon id="Fill-22" points="12.3203 7.4648 21.6723 17.6408 25.1873 14.4088 12.1963 0.2748 0.0323 14.4718 3.6553 17.5778"></polygon>
                    <path d="M37.665,40.7861 C35.478,40.7861 33.699,39.0061 33.699,36.8191 C33.699,34.6341 35.478,32.8531 37.665,32.8531 C39.851,32.8531 41.63,34.6341 41.63,36.8191 C41.63,39.0061 39.851,40.7861 37.665,40.7861 M37.665,28.0791 C32.846,28.0791 28.924,32.0021 28.924,36.8191 C28.924,41.6391 32.846,45.5591 37.665,45.5591 C42.483,45.5591 46.404,41.6391 46.404,36.8191 C46.404,32.0021 42.483,28.0791 37.665,28.0791" id="Fill-24"></path>
                    <polygon id="Fill-26" points="66.7324 27.1435 70.5844 24.3235 59.7534 9.5395 50.3574 22.3695 39.7614 22.3695 39.7614 17.9755 46.2344 17.9755 46.2344 13.2025 32.9904 13.2025 32.9904 11.5525 46.2344 11.5525 46.2344 6.7795 32.9904 6.7795 32.9904 5.1315 46.2344 5.1315 46.2344 0.3575 28.2164 0.3575 28.2164 17.9755 34.9864 17.9755 34.9864 22.3695 26.3674 22.3695 26.1114 22.3695 14.9614 22.3695 14.9614 13.6245 10.1874 13.6245 10.1874 22.3695 0.5194 22.3695 0.5194 27.1435 26.1114 27.1435 26.3674 27.1435 52.7754 27.1435 52.7764 27.1435 52.8644 27.1435 52.8644 27.0255 59.7534 17.6185"></polygon>
                    <polygon id="Fill-28" points="76.6269 19.1796 81.0849 19.1796 81.0849 14.4066 76.6269 14.4066 76.6269 9.3866 71.8539 9.3866 71.8539 26.2646 76.6269 26.2646"></polygon>
                    <polygon id="Fill-30" points="100.3711 14.4423 100.3711 9.6683 82.7581 9.6683 82.7581 14.4423 88.8101 14.4423 80.8551 23.6573 84.4691 26.7783 91.5651 18.5543 98.6601 26.7783 102.2751 23.6573 94.3201 14.4423"></polygon>
                    <polygon id="Fill-32" points="108.043 14.4062 108.043 9.3862 103.271 9.3862 103.271 26.2642 108.043 26.2642 108.043 19.1792 112.632 19.1792 112.632 14.4062"></polygon>
                    <path d="M69.0625,40.7861 C66.8755,40.7861 65.0955,39.0061 65.0955,36.8191 C65.0955,34.6341 66.8755,32.8531 69.0625,32.8531 C71.2485,32.8531 73.0275,34.6341 73.0275,36.8191 C73.0275,39.0061 71.2485,40.7861 69.0625,40.7861 M69.0625,28.0791 C64.2425,28.0791 60.3215,32.0021 60.3215,36.8191 C60.3215,41.6391 64.2425,45.5591 69.0625,45.5591 C73.8805,45.5591 77.8005,41.6391 77.8005,36.8191 C77.8005,32.0021 73.8805,28.0791 69.0625,28.0791" id="Fill-34"></path>
                </g>
            </g>
        </g>
    </g>
</svg>