<?xml version="1.0" encoding="UTF-8"?>
<svg width="154px" height="55px" viewBox="0 0 154 55" version="1.1" xmlns="http://www.w3.org/2000/svg" xmlns:xlink="http://www.w3.org/1999/xlink">
    <!-- Generator: Sketch 44.1 (41455) - http://www.bohemiancoding.com/sketch -->
    <title>logo_c</title>
    <desc>Created with Sketch.</desc>
    <defs></defs>
    <g id="FrontPage" stroke="none" stroke-width="1" fill="none" fill-rule="evenodd">
        <g id="Output_Clip" transform="translate(-531.000000, -464.000000)">
            <g id="logo_c" transform="translate(531.000000, 464.000000)">
                <path d="M104.749445,9.73352439 C104.512006,9.53364634 104.205482,9.4015122 103.886884,9.4015122 C103.647433,9.4015122 103.330177,9.54102439 103.330177,9.81937805 C103.330177,10.1104756 103.68097,10.2238293 103.907006,10.296939 L104.238348,10.3955366 C104.935238,10.602122 105.473165,10.9542561 105.473165,11.7631585 C105.473165,12.2615122 105.353104,12.771939 104.95536,13.1106585 C104.564994,13.4413293 104.040482,13.5808415 103.536091,13.5808415 C102.904933,13.5808415 102.28786,13.3688902 101.776762,13.0113902 L102.33414,11.9623659 C102.660116,12.2480976 103.045116,12.4801707 103.48914,12.4801707 C103.794323,12.4801707 104.119628,12.3265732 104.119628,11.9757805 C104.119628,11.6109024 103.60853,11.4848049 103.330177,11.4049878 C102.514567,11.1729146 101.97597,10.9602927 101.97597,9.99309756 C101.97597,8.97693902 102.699689,8.31358537 103.701762,8.31358537 C104.205482,8.31358537 104.822555,8.47187805 105.267921,8.7247439 L104.749445,9.73352439 Z" id="Fill-1" fill="#EE402F"></path>
                <path d="M107.38978,10.8614268 C107.38978,11.7233171 108.026976,12.3544756 108.803683,12.3544756 C109.57972,12.3544756 110.216244,11.7233171 110.216244,10.8614268 C110.216244,10.1712439 109.57972,9.5407561 108.803683,9.5407561 C108.026976,9.5407561 107.38978,10.1712439 107.38978,10.8614268 M111.56911,10.8547195 C111.56911,12.4725244 110.408744,13.6141098 108.803683,13.6141098 C107.19728,13.6141098 106.035573,12.4725244 106.035573,10.8547195 C106.035573,9.34154878 107.362951,8.27978049 108.803683,8.27978049 C110.242402,8.27978049 111.56911,9.34154878 111.56911,10.8547195" id="Fill-3" fill="#EE402F"></path>
                <polygon id="Fill-5" fill="#EE402F" points="114.363043 13.4487744 113.062494 13.4487744 113.062494 9.54779878 111.987311 9.54779878 111.987311 8.44578659 115.438226 8.44578659 115.438226 9.54779878 114.363043 9.54779878"></polygon>
                <path d="M117.208421,10.8614268 C117.208421,11.7233171 117.845616,12.3544756 118.620982,12.3544756 C119.39836,12.3544756 120.034884,11.7233171 120.034884,10.8614268 C120.034884,10.1712439 119.39836,9.5407561 118.620982,9.5407561 C117.845616,9.5407561 117.208421,10.1712439 117.208421,10.8614268 M121.388421,10.8547195 C121.388421,12.4725244 120.226713,13.6141098 118.620982,13.6141098 C117.016591,13.6141098 115.854213,12.4725244 115.854213,10.8547195 C115.854213,9.34154878 117.180921,8.27978049 118.620982,8.27978049 C120.061043,8.27978049 121.388421,9.34154878 121.388421,10.8547195" id="Fill-7" fill="#EE402F"></path>
                <polygon id="Fill-9" fill="#EE402F" points="122.189744 8.44578659 123.490293 8.44578659 125.872061 11.5049939 125.886146 11.5049939 125.886146 8.44578659 127.186024 8.44578659 127.186024 13.4487744 125.886146 13.4487744 123.504378 10.3835305 123.490293 10.3835305 123.490293 13.4487744 122.189744 13.4487744"></polygon>
                <path d="M133.224085,10.654439 C133.210671,11.3855366 133.157012,12.0093171 132.712988,12.6317561 C132.222012,13.3152317 131.485549,13.6137073 130.649146,13.6137073 C129.07628,13.6137073 127.982317,12.5459024 127.982317,10.974378 C127.982317,9.34785366 129.083659,8.28004878 130.695427,8.28004878 C131.724329,8.28004878 132.519817,8.74419512 132.951768,9.68053659 L131.717622,10.1976707 C131.537866,9.72010976 131.160915,9.4015122 130.635732,9.4015122 C129.779878,9.4015122 129.335854,10.2184634 129.335854,10.9797439 C129.335854,11.757122 129.8,12.5459024 130.656524,12.5459024 C131.219939,12.5459024 131.650549,12.2548049 131.704207,11.6766341 L130.641768,11.6766341 L130.641768,10.654439 L133.224085,10.654439 Z" id="Fill-11" fill="#EE402F"></path>
                <path d="M137.794116,12.4531402 L137.959787,12.4531402 C138.344116,12.4531402 138.995396,12.4725915 138.995396,11.9219207 C138.995396,11.3196037 138.350152,11.378628 137.926921,11.378628 L137.794116,11.378628 L137.794116,12.4531402 Z M137.794116,10.4094207 L137.940335,10.4094207 C138.284421,10.4094207 138.643262,10.3497256 138.643262,9.92515244 C138.643262,9.46704268 138.238811,9.44155488 137.887348,9.44155488 L137.794116,9.44155488 L137.794116,10.4094207 Z M136.493567,13.4485061 L136.493567,8.44551829 L138.350152,8.44551829 C139.239543,8.44551829 139.837165,8.79027439 139.837165,9.74740854 C139.837165,10.1981402 139.691616,10.5630183 139.286494,10.7682622 L139.286494,10.7816768 C140.003506,10.8749085 140.308689,11.3591768 140.308689,12.0553963 C140.308689,13.1044207 139.412591,13.4485061 138.497043,13.4485061 L136.493567,13.4485061 Z" id="Fill-13" fill="#EE402F"></path>
                <path d="M142.284866,10.8614268 C142.284866,11.7233171 142.922061,12.3544756 143.698768,12.3544756 C144.474805,12.3544756 145.112,11.7233171 145.112,10.8614268 C145.112,10.1712439 144.474805,9.5407561 143.698768,9.5407561 C142.922061,9.5407561 142.284866,10.1712439 142.284866,10.8614268 M146.464866,10.8547195 C146.464866,12.4725244 145.3045,13.6141098 143.698768,13.6141098 C142.093037,13.6141098 140.930659,12.4725244 140.930659,10.8547195 C140.930659,9.34154878 142.259378,8.27978049 143.698768,8.27978049 C145.138159,8.27978049 146.464866,9.34154878 146.464866,10.8547195" id="Fill-15" fill="#EE402F"></path>
                <polygon id="Fill-17" fill="#EE402F" points="147.148341 8.44578659 148.748037 8.44578659 149.509988 9.74029878 150.27261 8.44578659 151.870963 8.44578659 150.27261 10.7752378 152.1245 13.4487744 150.557671 13.4487744 149.509988 11.8162134 148.361695 13.4487744 146.7895 13.4487744 148.748037 10.7752378"></polygon>
                <polygon id="Fill-19" fill="#141E47" points="68.7827317 14.3703598 76.6973659 22.9818841 79.6727317 20.247311 68.6780976 8.28615244 58.3823659 20.299628 61.4502927 22.9288963"></polygon>
                <path d="M90.2317256,42.5692622 C88.3805061,42.5692622 86.8753841,41.0627988 86.8753841,39.21225 C86.8753841,37.362372 88.3805061,35.8565793 90.2317256,35.8565793 C92.0816037,35.8565793 93.5873963,37.362372 93.5873963,39.21225 C93.5873963,41.0627988 92.0816037,42.5692622 90.2317256,42.5692622 M90.2317256,31.8167622 C86.1536768,31.8167622 82.8355671,35.134872 82.8355671,39.21225 C82.8355671,43.2902988 86.1536768,46.6090793 90.2317256,46.6090793 C94.3091037,46.6090793 97.6265427,43.2902988 97.6265427,39.21225 C97.6265427,35.134872 94.3091037,31.8167622 90.2317256,31.8167622" id="Fill-21" fill="#141E47"></path>
                <polygon id="Fill-23" fill="#141E47" points="114.830073 31.0246951 118.089829 28.6368902 108.924951 16.1264024 100.973427 26.9835366 92.0064146 26.9835366 92.0064146 23.2663415 97.4842805 23.2663415 97.4842805 19.2251829 86.2756829 19.2251829 86.2756829 17.8307317 97.4842805 17.8307317 97.4842805 13.7902439 86.2756829 13.7902439 86.2756829 12.3957927 97.4842805 12.3957927 97.4842805 8.35530488 82.2351951 8.35530488 82.2351951 23.2663415 87.9652561 23.2663415 87.9652561 26.9835366 80.6697073 26.9835366 80.4550732 26.9835366 71.0185488 26.9835366 71.0185488 19.5833537 66.9773902 19.5833537 66.9773902 26.9835366 58.7971463 26.9835366 58.7971463 31.0246951 80.4550732 31.0246951 80.6697073 31.0246951 103.019159 31.0246951 103.0205 31.0246951 103.094951 31.0246951 103.094951 30.9234146 108.924951 22.9631707"></polygon>
                <polygon id="Fill-25" fill="#141E47" points="123.20503 24.2845793 126.977226 24.2845793 126.977226 20.2440915 123.20503 20.2440915 123.20503 15.9970183 119.165884 15.9970183 119.165884 30.28025 123.20503 30.28025"></polygon>
                <polygon id="Fill-27" fill="#141E47" points="143.298811 20.2752805 143.298811 16.2354634 128.39314 16.2354634 128.39314 20.2752805 133.514177 20.2752805 126.782713 28.073878 129.840579 30.7145488 135.846311 23.7557073 141.850701 30.7145488 144.909238 28.073878 138.177774 20.2752805"></polygon>
                <polygon id="Fill-29" fill="#141E47" points="149.790622 20.2438232 149.790622 15.99675 145.751476 15.99675 145.751476 30.2806524 149.790622 30.2806524 149.790622 24.284311 153.674829 24.284311 153.674829 20.2438232"></polygon>
                <path d="M116.802293,42.5692622 C114.951744,42.5692622 113.445951,41.0627988 113.445951,39.21225 C113.445951,37.362372 114.951744,35.8565793 116.802293,35.8565793 C118.652841,35.8565793 120.157963,37.362372 120.157963,39.21225 C120.157963,41.0627988 118.652841,42.5692622 116.802293,42.5692622 M116.802293,31.8167622 C112.723573,31.8167622 109.405463,35.134872 109.405463,39.21225 C109.405463,43.2902988 112.723573,46.6090793 116.802293,46.6090793 C120.881012,46.6090793 124.19711,43.2902988 124.19711,39.21225 C124.19711,35.134872 120.881012,31.8167622 116.802293,31.8167622" id="Fill-32" fill="#141E47"></path>
                <polygon id="Fill-34" fill="#F1653A" points="8.59375 27.4437256 0.670396341 32.0174451 16.5164329 41.1648841 16.5164329 32.0174451"></polygon>
                <polygon id="Fill-37" fill="#FBAF3F" points="24.4385122 27.4437256 24.4385122 27.4437256 24.4385122 54.8880549 48.2058902 41.1662256 48.2058902 41.1648841 48.2058902 13.7225671"></polygon>
                <polygon id="Fill-40" fill="#B22F24" points="0.671402439 13.7225671 0.670731707 13.7225671 0.670731707 22.8700061 16.5160976 32.0174451 16.5160976 41.1648841 16.5160976 41.1662256 16.5160976 41.1668963 16.5160976 41.1648841 0.670731707 32.0174451 0.670731707 32.0181159 0.670731707 41.1648841 24.4387805 54.8880549 24.4387805 27.4437256"></polygon>
                <polygon id="Fill-43" fill="#FFCF40" points="40.2832073 9.14797561 24.4385122 18.2960854 16.5158293 13.7223659 8.59381707 18.2960854 24.4385122 27.4435244 48.2058902 13.7223659"></polygon>
                <polygon id="Fill-45" fill="#EE402F" points="24.4385122 6.70731707e-05 24.4385122 6.70731707e-05 0.671134146 13.7225671 8.59381707 18.2956159 16.5158293 13.7225671 24.4385122 9.14817683 32.3605244 13.7225671 40.2832073 9.14817683"></polygon>
                <polygon id="Fill-47" fill="#69360A" points="40.2832073 36.5916341 40.2832073 27.4435244 32.3611951 32.0179146"></polygon>
                <polygon id="Fill-49" fill="#9F5F2A" points="38.4327927 37.6596402 40.2833415 36.5918354 32.3613293 32.0174451 32.3599878 32.0187866 32.3599878 41.1648841 36.5406585 38.7515915 36.5406585 41.710189"></polygon>
                <polygon id="Fill-51" fill="#822016" points="24.4385122 18.2958171 24.4385122 18.2958171 32.3605244 13.7227683 24.4385122 9.14770732"></polygon>
                <polygon id="Fill-53" fill="#650003" points="24.4385122 9.14797561 16.5158293 13.7223659 20.7354024 16.1577927 17.3361341 18.2404146 22.9561951 17.4402317 24.4385122 18.2960854"></polygon>
            </g>
        </g>
    </g>
</svg>